:FULLY-SPECIFIED
:FORCE-ALL-JOINTS-BE-3DOF
:DEGREES
918
root -0.205654 14.1347 -36.2926 12.9749 -26.6598 -16.724
lfemur -65.7164 31.8138 -1.1051
ltibia 70.8265 -0 0
lfoot -7.53807 -9.97411 -0.142415
ltoes -10.186 0 0
rfemur 6.7925 -8.29343 13.1329
rtibia 36.907 -0 0
rfoot -22.7458 -28.3777 -0.00343727
rtoes -28.6043 0 0
lowerback 11.0903 -0.0651768 7.04379
upperback -1.74677 1.30071 5.74497
thorax -8.11636 0.43166 1.94049
lowerneck -3.62198 7.72604 2.37417
upperneck 4.10196 10.2096 -0.587924
head 2.0625 5.1137 -0.277885
lclavicle 3.04141e-14 -7.31528e-14 0
lhumerus 11.4869 -8.9684 71.5766
lradius 20.4953 -0 0
lwrist -29.0216 0 0
lhand -27.8104 30.0924 0.0754546
lfingers 7.12502 -0 0
lthumb -1.20318 60.046 0.0701493
rclavicle 3.04141e-14 -7.31528e-14 0
rhumerus -76.9992 22.0191 -96.9686
rradius 110.295 -0 0
rwrist -68.5349 0 0
rhand -11.4821 -24.2466 0.000778932
rfingers 7.12502 -0 0
rthumb 14.5561 -53.7165 0.000611999
919
root -0.196398 14.1262 -36.2831 12.9564 -26.6538 -16.7651
lfemur -65.8194 31.8948 -1.15664
ltibia 71.0044 -0 0
lfoot -7.55273 -10.0548 -0.140949
ltoes -9.8382 0 0
rfemur 6.84133 -8.32917 13.0884
rtibia 36.9308 -0 0
rfoot -22.7717 -28.323 -0.00359644
rtoes -28.7169 0 0
lowerback 11.0628 -0.082057 7.08022
upperback -1.73149 1.28241 5.80814
thorax -8.08569 0.423112 1.99081
lowerneck -3.62655 7.73437 2.41475
upperneck 4.17169 10.2203 -0.620432
head 2.09113 5.11892 -0.291965
lclavicle 3.04141e-14 -7.31528e-14 0
lhumerus 11.2345 -10.6871 71.9352
lradius 20.9026 -0 0
lwrist -27.4251 0 0
lhand -27.4952 30.0828 0.0780592
lfingers 7.12502 -0 0
lthumb -0.898778 60.0371 0.0726393
rclavicle 3.04141e-14 -7.31528e-14 0
rhumerus -76.9951 22.0036 -96.9285
rradius 110.282 -0 0
rwrist -68.5089 0 0
rhand -11.4861 -24.256 0.000872774
rfingers 7.12502 -0 0
rthumb 14.5523 -53.7261 0.000695744
920
root -0.187141 14.1177 -36.2737 12.9356 -26.653 -16.8031
lfemur -65.9131 31.9725 -1.20434
ltibia 71.176 -0 0
lfoot -7.56125 -10.1297 -0.138436
ltoes -9.4857 0 0
rfemur 6.88346 -8.36705 13.0412
rtibia 36.9661 -0 0
rfoot -22.7979 -28.2671 -0.00373076
rtoes -28.8284 0 0
lowerback 11.0367 -0.0985289 7.11461
upperback -1.71552 1.26434 5.87087
thorax -8.05512 0.414764 2.04169
lowerneck -3.6322 7.74333 2.45575
upperneck 4.24352 10.2318 -0.654228
head 2.12078 5.12453 -0.306366
lclavicle 3.04141e-14 -7.31528e-14 0
lhumerus 10.9657 -12.4358 72.3031
lradius 21.3361 -0 0
lwrist -25.7933 0 0
lhand -27.1817 30.0773 0.0802604
lfingers 7.12502 -0 0
lthumb -0.595933 60.0322 0.0747594
rclavicle 3.04141e-14 -7.31528e-14 0
rhumerus -76.9892 21.9852 -96.8852
rradius 110.27 -0 0
rwrist -68.4855 0 0
rhand -11.4893 -24.2656 0.000965039
rfingers 7.12502 -0 0
rthumb 14.5491 -53.736 0.00077862
921
root -0.177885 14.1092 -36.2642 12.9125 -26.6568 -16.8384
lfemur -65.9982 32.047 -1.24846
ltibia 71.3417 -0 0
lfoot -7.56423 -10.1991 -0.134955
ltoes -9.12952 0 0
rfemur 6.91946 -8.40681 12.9917
rtibia 37.012 -0 0
rfoot -22.8244 -28.2103 -0.00383849
rtoes -28.9387 0 0
lowerback 11.012 -0.114629 7.14701
upperback -1.69894 1.24649 5.93313
thorax -8.02469 0.406594 2.0931
lowerneck -3.63885 7.75287 2.49707
upperneck 4.3172 10.2442 -0.689145
head 2.15134 5.13053 -0.321034
lclavicle 3.04141e-14 -7.31528e-14 0
lhumerus 10.6823 -14.2093 72.6801
lradius 21.7955 -0 0
lwrist -24.1317 0 0
lhand -26.8706 30.076 0.0820399
lfingers 7.12502 -0 0
lthumb -0.295527 60.0313 0.0764917
rclavicle 3.04141e-14 -7.31528e-14 0
rhumerus -76.9816 21.9643 -96.8392
rradius 110.252 -0 0
rwrist -68.4447 0 0
rhand -11.4918 -24.2754 0.00105455
rfingers 7.12502 -0 0
rthumb 14.5467 -53.746 0.000859545
922
root -0.168628 14.1007 -36.2547 12.8876 -26.665 -16.871
lfemur -66.0754 32.1186 -1.28926
ltibia 71.5021 -0 0
lfoot -7.56228 -10.2633 -0.130591
ltoes -8.77074 0 0
rfemur 6.94988 -8.44821 12.94
rtibia 37.0674 -0 0
rfoot -22.8511 -28.1525 -0.00391823
rtoes -29.0477 0 0
lowerback 10.9886 -0.130395 7.17749
upperback -1.68185 1.22882 5.9949
thorax -7.99448 0.39858 2.145
lowerneck -3.64642 7.76293 2.53859
upperneck 4.3925 10.2574 -0.725013
head 2.18269 5.13685 -0.335915
lclavicle 3.04141e-14 -7.31528e-14 0
lhumerus 10.386 -16.0026 73.066
lradius 22.2803 -0 0
lwrist -22.4458 0 0
lhand -26.563 30.0787 0.0833807
lfingers 7.12502 -0 0
lthumb 0.00155902 60.0342 0.0778192
rclavicle 3.04141e-14 -7.31528e-14 0
rhumerus -76.9725 21.9412 -96.7907
rradius 110.24 -0 0
rwrist -68.4068 0 0
rhand -11.4936 -24.2855 0.00114012
rfingers 7.12502 -0 0
rthumb 14.545 -53.7562 0.000937443
923
root -0.159372 14.0922 -36.2453 12.8609 -26.6771 -16.9013
lfemur -66.1452 32.1874 -1.32702
ltibia 71.6575 -0 0
lfoot -7.55602 -10.3225 -0.12543
ltoes -8.4104 0 0
rfemur 6.97528 -8.49099 12.8863
rtibia 37.1311 -0 0
rfoot -22.8778 -28.094 -0.00396893
rtoes -29.1554 0 0
lowerback 10.9665 -0.145862 7.20609
upperback -1.66434 1.21129 6.05618
thorax -7.96454 0.390701 2.19735
lowerneck -3.65481 7.77347 2.58023
upperneck 4.46918 10.2713 -0.761664
head 2.21474 5.14349 -0.350951
lclavicle 3.04141e-14 -7.31528e-14 0
lhumerus 10.0787 -17.8108 73.4602
lradius 22.7902 -0 0
lwrist -20.741 0 0
lhand -26.2598 30.0854 0.0842674
lfingers 7.12502 -0 0
lthumb 0.294447 60.0409 0.0787264
rclavicle 3.04141e-14 -7.31528e-14 0
rhumerus -76.9622 21.9162 -96.7399
rradius 110.229 -0 0
rwrist -68.3654 0 0
rhand -11.4946 -24.2959 0.00122062
rfingers 7.12502 -0 0
rthumb 14.544 -53.7667 0.00101125
924
root -0.150115 14.0836 -36.2358 12.8328 -26.6929 -16.9294
lfemur -66.2084 32.2537 -1.362
ltibia 71.8083 -0 0
lfoot -7.54605 -10.377 -0.11956
ltoes -8.04958 0 0
rfemur 6.9962 -8.53492 12.831
rtibia 37.2021 -0 0
rfoot -22.9045 -28.035 -0.00398988
rtoes -29.2617 0 0
lowerback 10.9456 -0.161067 7.2329
upperback -1.64651 1.19388 6.11694
thorax -7.93494 0.382935 2.25011
lowerneck -3.66395 7.78442 2.62188
upperneck 4.54702 10.2858 -0.798931
head 2.24736 5.15039 -0.36609
lclavicle 3.04141e-14 -7.31528e-14 0
lhumerus 9.76263 -19.629 73.8622
lradius 23.3246 -0 0
lwrist -19.0227 0 0
lhand -25.9618 30.096 0.0846861
lfingers 7.12502 -0 0
lthumb 0.582256 60.0515 0.0791992
rclavicle 3.04141e-14 -7.31528e-14 0
rhumerus -76.9508 21.8896 -96.6873
rradius 110.22 -0 0
rwrist -68.3207 0 0
rhand -11.4948 -24.3067 0.0012949
rfingers 7.12502 -0 0
rthumb 14.5438 -53.7775 0.00107993
925
root -0.140858 14.0751 -36.2264 12.8035 -26.7117 -16.9554
lfemur -66.2657 32.3177 -1.39449
ltibia 71.955 -0 0
lfoot -7.53297 -10.4271 -0.113072
ltoes -7.68933 0 0
rfemur 7.0132 -8.57973 12.7741
rtibia 37.2793 -0 0
rfoot -22.9311 -27.9756 -0.0039807
rtoes -29.3664 0 0
lowerback 10.9258 -0.176045 7.25796
upperback -1.62846 1.17655 6.17717
thorax -7.90575 0.37526 2.30325
lowerneck -3.67375 7.79574 2.66343
upperneck 4.62579 10.3008 -0.836646
head 2.28045 5.15754 -0.381275
lclavicle 3.04141e-14 -7.31528e-14 0
lhumerus 9.43987 -21.4523 74.271
lradius 23.8833 -0 0
lwrist -17.2965 0 0
lhand -25.67 30.1104 0.0846252
lfingers 7.12502 -0 0
lthumb 0.864107 60.0657 0.0792255
rclavicle 3.04141e-14 -7.31528e-14 0
rhumerus -76.9384 21.8616 -96.6331
rradius 110.212 -0 0
rwrist -68.2729 0 0
rhand -11.4941 -24.3178 0.00136184
rfingers 7.12502 -0 0
rthumb 14.5445 -53.7886 0.00114243
926
root -0.131602 14.0666 -36.2169 12.7732 -26.7334 -16.9798
lfemur -66.3178 32.3796 -1.42476
ltibia 72.098 -0 0
lfoot -7.51741 -10.4731 -0.106059
ltoes -7.33071 0 0
rfemur 7.02683 -8.62518 12.7159
rtibia 37.3617 -0 0
rfoot -22.9574 -27.9159 -0.00394139
rtoes -29.4697 0 0
lowerback 10.9071 -0.190833 7.28133
upperback -1.61027 1.15926 6.23684
thorax -7.87703 0.367654 2.35671
lowerneck -3.68413 7.80736 2.70479
upperneck 4.70525 10.3163 -0.874641
head 2.3139 5.16488 -0.396452
lclavicle 3.04141e-14 -7.31528e-14 0
lhumerus 9.11287 -23.2758 74.6856
lradius 24.4658 -0 0
lwrist -15.5677 0 0
lhand -25.3852 30.1286 0.0840754
lfingers 7.12502 -0 0
lthumb 1.13912 60.0836 0.0787953
rclavicle 3.04141e-14 -7.31528e-14 0
rhumerus -76.9253 21.8326 -96.5776
rradius 110.206 -0 0
rwrist -68.2222 0 0
rhand -11.4927 -24.3293 0.00142036
rfingers 7.12502 -0 0
rthumb 14.5459 -53.8 0.00119776
927
root -0.122345 14.0581 -36.2074 12.7421 -26.7575 -17.0025
lfemur -66.3653 32.4396 -1.4531
ltibia 72.2377 -0 0
lfoot -7.49997 -10.5154 -0.0986138
ltoes -6.97479 0 0
rfemur 7.03764 -8.67102 12.6566
rtibia 37.4481 -0 0
rfoot -22.9834 -27.8561 -0.00387231
rtoes -29.5713 0 0
lowerback 10.8894 -0.205465 7.30309
upperback -1.59205 1.142 6.29595
thorax -7.84884 0.360097 2.41048
lowerneck -3.69501 7.81925 2.74584
upperneck 4.78516 10.3323 -0.912749
head 2.34761 5.1724 -0.411566
lclavicle 3.04141e-14 -7.31528e-14 0
lhumerus 8.78431 -25.0949 75.1045
lradius 25.0716 -0 0
lwrist -13.8418 0 0
lhand -25.1085 30.1504 0.0830299
lfingers 7.12502 -0 0
lthumb 1.40641 60.105 0.0779007
rclavicle 3.04141e-14 -7.31528e-14 0
rhumerus -76.9117 21.8029 -96.521
rradius 110.201 -0 0
rwrist -68.1688 0 0
rhand -11.4904 -24.3412 0.00146938
rfingers 7.12502 -0 0
rthumb 14.5481 -53.8118 0.00124492
928
root -0.113089 14.0496 -36.198 12.7106 -26.7836 -17.0239
lfemur -66.4089 32.4978 -1.47981
ltibia 72.3745 -0 0
lfoot -7.48125 -10.5541 -0.0908317
ltoes -6.62262 0 0
rfemur 7.04619 -8.717 12.5965
rtibia 37.5375 -0 0
rfoot -23.0089 -27.7964 -0.00377414
rtoes -29.6713 0 0
lowerback 10.8727 -0.219977 7.32328
upperback -1.57388 1.12472 6.35448
thorax -7.82125 0.352568 2.4645
lowerneck -3.7063 7.83133 2.78649
upperneck 4.8653 10.3485 -0.950803
head 2.38146 5.18005 -0.426562
lclavicle 3.04141e-14 -7.31528e-14 0
lhumerus 8.45715 -26.9048 75.526
lradius 25.7005 -0 0
lwrist -12.1243 0 0
lhand -24.8406 30.1759 0.0814849
lfingers 7.12502 -0 0
lthumb 1.66511 60.13 0.0765368
rclavicle 3.04141e-14 -7.31528e-14 0
rhumerus -76.8978 21.7729 -96.4638
rradius 110.197 -0 0
rwrist -68.113 0 0
rhand -11.4872 -24.3536 0.00150786
rfingers 7.12502 -0 0
rthumb 14.5512 -53.8239 0.00128296
929
root -0.103832 14.0411 -36.1885 12.6788 -26.8114 -17.0441
lfemur -66.4494 32.5545 -1.50517
ltibia 72.5089 -0 0
lfoot -7.46186 -10.5895 -0.0828087
ltoes -6.27527 0 0
rfemur 7.05302 -8.76287 12.5357
rtibia 37.6287 -0 0
rfoot -23.0339 -27.7369 -0.00364794
rtoes -29.7696 0 0
lowerback 10.8569 -0.234405 7.34197
upperback -1.55587 1.1074 6.41241
thorax -7.79431 0.345045 2.51873
lowerneck -3.71792 7.84356 2.82664
upperneck 4.94543 10.365 -0.988637
head 2.41534 5.1878 -0.441385
lclavicle 3.04141e-14 -7.31528e-14 0
lhumerus 8.13467 -28.701 75.948
lradius 26.3519 -0 0
lwrist -10.4205 0 0
lhand -24.5826 30.205 0.0794395
lfingers 7.12502 -0 0
lthumb 1.91433 60.1585 0.0747011
rclavicle 3.04141e-14 -7.31528e-14 0
rhumerus -76.8837 21.7427 -96.406
rradius 110.186 -0 0
rwrist -68.0548 0 0
rhand -11.4831 -24.3665 0.0015348
rfingers 7.12502 -0 0
rthumb 14.5551 -53.8365 0.00131092
930
root -0.0945758 14.0326 -36.1791 12.6469 -26.8403 -17.0633
lfemur -66.4873 32.6098 -1.52948
ltibia 72.6412 -0 0
lfoot -7.44241 -10.622 -0.0746413
ltoes -5.9338 0 0
rfemur 7.05868 -8.80836 12.4744
rtibia 37.7208 -0 0
rfoot -23.0582 -27.6778 -0.00349508
rtoes -29.866 0 0
lowerback 10.8419 -0.248783 7.35923
upperback -1.5381 1.09001 6.46972
thorax -7.7681 0.337509 2.57315
lowerneck -3.72979 7.85588 2.86618
upperneck 5.02532 10.3817 -1.02608
head 2.44914 5.19561 -0.455981
lclavicle 3.04141e-14 -7.31528e-14 0
lhumerus 7.82056 -30.4787 76.368
lradius 27.0255 -0 0
lwrist -8.73607 0 0
lhand -24.3353 30.2375 0.0768963
lfingers 7.12502 -0 0
lthumb 2.15319 60.1904 0.0723945
rclavicle 3.04141e-14 -7.31528e-14 0
rhumerus -76.8696 21.7127 -96.3482
rradius 110.193 -0 0
rwrist -67.9946 0 0
rhand -11.4782 -24.3799 0.00154922
rfingers 7.12502 -0 0
rthumb 14.5599 -53.8496 0.0013279
